<svg width="179" height="26" viewBox="0 0 179 26" fill="none" xmlns="http://www.w3.org/2000/svg">
<mask id="mask0_110_70" style="mask-type:luminance" maskUnits="userSpaceOnUse" x="0" y="0" width="179" height="26">
<path d="M178.627 0.624725H0.4375V25.5H178.627V0.624725Z" fill="white"/>
</mask>
<g mask="url(#mask0_110_70)">
<path d="M0.4375 23.6349H22.046L20.8046 25.3752H0.4375V23.6349Z" fill="#1D1D1B"/>
<path d="M178.629 25.3752H152.18L153.546 23.6349H178.754V25.3752H178.629Z" fill="#1D1D1B"/>
<path d="M0.4375 20.4037H24.5287L23.1626 22.1441H0.4375V20.4037Z" fill="#1D1D1B"/>
<path d="M0.4375 17.1667H27.0115L25.6454 18.907H0.4375V17.1667Z" fill="#1D1D1B"/>
<path d="M178.627 22.1441H154.66L156.026 20.4037H178.751V22.1441H178.627Z" fill="#1D1D1B"/>
<path d="M158.386 17.1667H178.628V18.907H157.02L158.386 17.1667Z" fill="#1D1D1B"/>
<path d="M23.7794 25.3753L35.2013 10.0747H49.3555C50.9711 10.0747 50.9711 10.6984 50.098 11.6903C49.3555 12.6882 47.9894 14.5532 47.241 15.5451C46.8668 16.1688 46.1244 17.036 48.4824 17.036H67.4833C65.9925 19.2752 60.7775 25.494 51.5888 25.494C44.1405 25.3693 23.7734 25.3693 23.7734 25.3693L23.7794 25.3753Z" fill="#1D1D1B"/>
<path d="M89.2217 17.1667L83.0148 25.5H66.7461L72.953 17.1667H89.2217Z" fill="#1D1D1B"/>
<path d="M112.94 17.1667L106.733 25.5H90.3398L96.5468 17.1667H112.94Z" fill="#1D1D1B"/>
<path d="M118.28 17.1667C118.28 17.1667 117.038 18.7822 116.539 19.5306C114.431 22.2688 116.29 25.5 122.996 25.5H149.32L155.527 17.1667H118.274H118.28Z" fill="#1D1D1B"/>
<path d="M31.8507 0.62471L26.1367 8.20965H57.1773C58.7929 8.20965 58.7929 8.83331 57.9198 9.82523C57.1773 10.8231 55.8112 12.6881 55.0628 13.6801C54.6886 14.179 53.9462 15.1709 56.3042 15.1709H68.9676C68.9676 15.1709 71.0761 12.4327 72.6917 10.0688C75.0498 6.95638 72.9412 0.488098 64.6197 0.488098C57.1714 0.612831 31.8388 0.612831 31.8388 0.612831L31.8507 0.62471Z" fill="#1D1D1B"/>
<path d="M114.306 15.1769H74.3203L85.2493 0.624725H101.643L95.4358 8.95806H102.759L108.966 0.624725H125.36L114.306 15.1769Z" fill="#1D1D1B"/>
<path d="M147.955 0.624725L137.026 15.1769H119.641L130.57 0.624725H147.955Z" fill="#1D1D1B"/>
</g>
</svg>
