<svg width="125" height="50" viewBox="0 0 125 50" fill="none" xmlns="http://www.w3.org/2000/svg">
<g clip-path="url(#clip0_110_51)">
<mask id="mask0_110_51" style="mask-type:luminance" maskUnits="userSpaceOnUse" x="0" y="0" width="125" height="50">
<path d="M124.468 0.125671H0.121094V50H124.468V0.125671Z" fill="white"/>
</mask>
<g mask="url(#mask0_110_51)">
<path d="M16.1901 10.8663C7.42672 10.8663 0.121094 14.5778 0.121094 25.7959C0.121094 34.685 5.03061 40.2815 16.4163 40.2815C29.8128 40.2815 30.6757 31.4595 30.6757 31.4595H24.1827C24.1827 31.4595 22.792 36.2098 16.0226 36.2098C10.5098 36.2098 6.54703 32.4816 6.54703 27.2621H31.3543V23.9863C31.3543 18.8254 28.0785 10.8579 16.1901 10.8579V10.8663ZM15.9639 15.0469C21.2086 15.0469 24.786 18.2641 24.786 23.0814H6.68108C6.68108 17.9625 11.3476 15.0469 15.9639 15.0469Z" fill="#706F6F"/>
<path d="M31.3456 0V34.6515C31.3456 36.6203 31.2031 39.3767 31.2031 39.3767H37.3945C37.3945 39.3767 37.6207 37.3911 37.6207 35.5814C37.6207 35.5814 40.6787 40.3653 48.998 40.3653C57.7614 40.3653 63.7098 34.2828 63.7098 25.5697C63.7098 17.4598 58.2474 10.9417 49.0148 10.9417C40.3687 10.9417 37.6877 15.6082 37.6877 15.6082V0H31.3539H31.3456ZM47.4146 15.2312C53.363 15.2312 57.1498 19.6464 57.1498 25.5697C57.1498 31.9202 52.7849 36.0757 47.4649 36.0757C41.1143 36.0757 37.6877 31.116 37.6877 25.62C37.6877 20.501 40.7624 15.2229 47.423 15.2229L47.4146 15.2312Z" fill="#575756"/>
<path d="M79.1008 10.8663C65.9138 10.8663 65.0677 18.0881 65.0677 19.2359H71.6277C71.6277 19.2359 71.9712 15.0218 78.6401 15.0218C82.9715 15.0218 86.3311 17.0074 86.3311 20.8194V22.1766H78.6401C68.4273 22.1766 63.0234 25.1675 63.0234 31.2249C63.0234 37.2822 68.0167 40.4407 74.7527 40.4407C83.9433 40.4407 86.9008 35.3636 86.9008 35.3636C86.9008 37.3827 87.06 39.3767 87.06 39.3767H92.8911C92.8911 39.3767 92.6649 36.9135 92.6649 35.3301V21.6907C92.6649 12.7429 85.4514 10.8663 79.0841 10.8663H79.1008ZM86.3395 26.2483V28.058C86.3395 30.4206 84.8817 36.2936 76.3026 36.2936C71.6025 36.2936 69.5918 33.9477 69.5918 31.2332C69.5918 26.2902 76.378 26.2567 86.3395 26.2567V26.2483Z" fill="#1D1D1B"/>
<path d="M89.1445 11.9973H96.5256L107.124 33.2272L117.697 11.9973H124.382L105.13 49.7906H98.1174L103.672 39.251L89.1445 11.989V11.9973Z" fill="#3C3C3B"/>
</g>
<mask id="mask1_110_51" style="mask-type:luminance" maskUnits="userSpaceOnUse" x="0" y="0" width="125" height="50">
<path d="M124.468 0.125671H0.121094V50H124.468V0.125671Z" fill="white"/>
</mask>
<g mask="url(#mask1_110_51)">
<path d="M16.1901 10.8663C7.42672 10.8663 0.121094 14.5778 0.121094 25.7959C0.121094 34.685 5.03061 40.2815 16.4163 40.2815C29.8128 40.2815 30.6757 31.4595 30.6757 31.4595H24.1827C24.1827 31.4595 22.792 36.2098 16.0226 36.2098C10.5098 36.2098 6.54703 32.4816 6.54703 27.2621H31.3543V23.9863C31.3543 18.8254 28.0785 10.8579 16.1901 10.8579V10.8663ZM15.9639 15.0469C21.2086 15.0469 24.786 18.2641 24.786 23.0814H6.68108C6.68108 17.9625 11.3476 15.0469 15.9639 15.0469Z" fill="#1D1D1B"/>
<path d="M31.3456 0V34.6515C31.3456 36.6203 31.2031 39.3767 31.2031 39.3767H37.3945C37.3945 39.3767 37.6207 37.3911 37.6207 35.5814C37.6207 35.5814 40.6787 40.3653 48.998 40.3653C57.7614 40.3653 63.7098 34.2828 63.7098 25.5697C63.7098 17.4598 58.2474 10.9417 49.0148 10.9417C40.3687 10.9417 37.6877 15.6082 37.6877 15.6082V0H31.3539H31.3456ZM47.4146 15.2312C53.363 15.2312 57.1498 19.6464 57.1498 25.5697C57.1498 31.9202 52.7849 36.0757 47.4649 36.0757C41.1143 36.0757 37.6877 31.116 37.6877 25.62C37.6877 20.501 40.7624 15.2229 47.423 15.2229L47.4146 15.2312Z" fill="#1D1D1B"/>
<path d="M79.1008 10.8663C65.9138 10.8663 65.0677 18.0881 65.0677 19.2359H71.6277C71.6277 19.2359 71.9712 15.0218 78.6401 15.0218C82.9715 15.0218 86.3311 17.0074 86.3311 20.8194V22.1766H78.6401C68.4273 22.1766 63.0234 25.1675 63.0234 31.2249C63.0234 37.2822 68.0167 40.4407 74.7527 40.4407C83.9433 40.4407 86.9008 35.3636 86.9008 35.3636C86.9008 37.3827 87.06 39.3767 87.06 39.3767H92.8911C92.8911 39.3767 92.6649 36.9135 92.6649 35.3301V21.6907C92.6649 12.7429 85.4514 10.8663 79.0841 10.8663H79.1008ZM86.3395 26.2483V28.058C86.3395 30.4206 84.8817 36.2936 76.3026 36.2936C71.6025 36.2936 69.5918 33.9477 69.5918 31.2332C69.5918 26.2902 76.378 26.2567 86.3395 26.2567V26.2483Z" fill="#1D1D1B"/>
<path d="M89.1445 11.9973H96.5256L107.124 33.2272L117.697 11.9973H124.382L105.13 49.7906H98.1174L103.672 39.251L89.1445 11.989V11.9973Z" fill="#1D1D1B"/>
</g>
</g>
<defs>
<clipPath id="clip0_110_51">
<rect width="124.347" height="50" fill="white" transform="translate(0.121094)"/>
</clipPath>
</defs>
</svg>
