<svg width="251" height="22" viewBox="0 0 251 22" fill="none" xmlns="http://www.w3.org/2000/svg">
<g clip-path="url(#clip0_110_27)">
<path fill-rule="evenodd" clip-rule="evenodd" d="M39.3135 21.035H66.9219C68.1719 21.035 69.1802 19.825 69.1802 18.335V3.665C69.1802 2.175 68.1719 0.964996 66.9219 0.964996H39.3135C38.0635 0.964996 37.0469 2.175 37.0469 3.665V18.345C37.0469 19.825 38.0635 21.045 39.3135 21.045V21.035ZM41.0719 4.865H65.2969C65.7135 4.865 66.0469 5.275 66.0469 5.765V16.255C66.0469 16.745 65.7052 17.155 65.2969 17.155H41.0719C40.6552 17.155 40.3219 16.755 40.3219 16.255V5.755C40.3219 5.265 40.6635 4.855 41.0719 4.855V4.865Z" fill="#010101"/>
<path fill-rule="evenodd" clip-rule="evenodd" d="M0.53125 21.035H3.79792V16.245H30.2813C31.5896 16.245 32.6646 14.965 32.6646 13.395V3.815C32.6563 2.245 31.5896 0.964996 30.2729 0.964996H0.53125V21.035ZM3.79792 12.345V4.865H28.3979C28.9479 4.865 29.3979 5.405 29.3979 6.065V11.155C29.3979 11.815 28.9479 12.355 28.3979 12.355H3.79792V12.345Z" fill="#010101"/>
<path fill-rule="evenodd" clip-rule="evenodd" d="M73.4492 21.035H76.7159V16.245H100.241L102.299 21.035H105.824L103.733 16.175C104.791 15.885 105.583 14.745 105.583 13.405V3.815C105.583 2.255 104.508 0.964996 103.199 0.964996H73.4576V21.035H73.4492ZM76.7159 12.345V4.865H101.316C101.866 4.865 102.324 5.405 102.324 6.065V11.155C102.324 11.815 101.874 12.355 101.316 12.355H76.7159V12.345Z" fill="#010101"/>
<path fill-rule="evenodd" clip-rule="evenodd" d="M182.633 21.035H185.899V12.945H209.874V21.035H213.133V0.964996H209.874V9.055H185.899V0.964996H182.633V21.035Z" fill="#010101"/>
<path fill-rule="evenodd" clip-rule="evenodd" d="M149.754 21.035H177.738V17.085C177.663 17.115 177.571 17.135 177.488 17.135H151.513C151.104 17.135 150.763 16.725 150.763 16.235V5.755C150.763 5.265 151.104 4.855 151.513 4.855H177.488C177.571 4.855 177.663 4.875 177.738 4.905V0.964996H149.754C148.504 0.964996 147.496 2.175 147.496 3.665V18.345C147.496 19.825 148.504 21.045 149.754 21.045V21.035Z" fill="#010101"/>
<path fill-rule="evenodd" clip-rule="evenodd" d="M218.156 21.035H220.04H221.415H250.531V17.145H221.415V12.945H250.531V9.055H221.415V4.865H250.531V0.964996H221.415H220.04H218.156V21.035Z" fill="#010101"/>
<path fill-rule="evenodd" clip-rule="evenodd" d="M114.614 6.655V5.755C114.614 5.265 114.955 4.855 115.364 4.855H141.347C141.43 4.855 141.522 4.875 141.597 4.905V0.964996H113.614C112.364 0.964996 111.355 2.175 111.355 3.665V10.255C111.355 11.735 112.364 12.955 113.614 12.955H115.997V13.005C116.072 12.975 116.155 12.955 116.247 12.955H137.58C137.997 12.955 138.33 13.365 138.33 13.855V16.255C138.33 16.745 137.989 17.155 137.58 17.155H111.605C111.522 17.155 111.43 17.135 111.355 17.105V21.055H139.339C140.589 21.055 141.597 19.845 141.597 18.355V11.765C141.597 10.285 140.589 9.065 139.339 9.065H136.955V9.015C136.872 9.045 136.789 9.065 136.705 9.065H115.372C114.955 9.065 114.622 8.665 114.622 8.165V6.665L114.614 6.655Z" fill="#010101"/>
</g>
<defs>
<clipPath id="clip0_110_27">
<rect width="250" height="20.07" fill="white" transform="translate(0.53125 0.964996)"/>
</clipPath>
</defs>
</svg>
