<svg width="152" height="40" viewBox="0 0 152 40" fill="none" xmlns="http://www.w3.org/2000/svg">
<g clip-path="url(#clip0_110_89)">
<path d="M48.7828 8C48.4694 8 48.2094 8.22667 48.1628 8.53333L44.5694 31.3267C44.5561 31.4067 44.5628 31.4933 44.5828 31.5733C44.6028 31.6533 44.6428 31.7267 44.7028 31.7933C44.7561 31.86 44.8228 31.9067 44.9028 31.9467C44.9761 31.98 45.0628 32 45.1494 32H49.4161C49.7294 32 49.9894 31.7733 50.0361 31.4667L51.0894 24.7733C51.1361 24.4667 51.4028 24.24 51.7094 24.24H55.5828C60.1094 24.24 63.9561 20.9333 64.6561 16.46C65.3628 11.9467 61.8361 8.00667 56.8361 8H48.7828ZM52.9294 13.0867H56.0294C58.5828 13.0867 59.4161 14.5933 59.1494 16.26C58.8894 17.9267 57.5961 19.16 55.1228 19.16H51.9694L52.9294 13.0867ZM73.3294 14.64C72.2561 14.64 71.0161 14.8667 69.6228 15.4467C66.4361 16.7733 64.9028 19.5267 64.2494 21.5267C64.2494 21.5267 62.1761 27.64 66.8561 30.9933C66.8561 30.9933 71.1961 34.2267 76.0761 30.7933L75.9894 31.3267C75.9761 31.4067 75.9828 31.4933 76.0028 31.5733C76.0228 31.6533 76.0628 31.7267 76.1228 31.7933C76.1761 31.86 76.2428 31.9067 76.3228 31.9467C76.3961 31.98 76.4828 32 76.5694 32H80.6161C80.9294 32 81.1894 31.7733 81.2361 31.4667L83.6961 15.86C83.7094 15.78 83.7028 15.6933 83.6828 15.6133C83.6628 15.5333 83.6228 15.46 83.5628 15.3933C83.5094 15.3267 83.4428 15.28 83.3628 15.24C83.2894 15.2067 83.2028 15.1867 83.1161 15.1867H79.0694C78.7561 15.1867 78.4961 15.4133 78.4494 15.72L78.3161 16.56C78.3161 16.56 76.5494 14.6267 73.3161 14.64H73.3294ZM73.4628 19.5667C73.9294 19.5667 74.3494 19.6333 74.7361 19.7533C76.4828 20.3133 77.4694 21.9933 77.1828 23.8067C76.8294 26.0467 74.9961 27.6933 72.6361 27.6933C72.1694 27.6933 71.7494 27.6267 71.3628 27.5067C69.6161 26.9467 68.6228 25.2667 68.9094 23.4533C69.2628 21.2133 71.1028 19.5667 73.4628 19.5667Z" fill="black"/>
<path d="M107.072 8C106.758 8 106.499 8.22667 106.452 8.53333L102.859 31.3267C102.845 31.4067 102.852 31.4933 102.872 31.5733C102.892 31.6533 102.932 31.7267 102.992 31.7933C103.045 31.86 103.112 31.9067 103.192 31.9467C103.265 31.98 103.352 32 103.438 32H107.705C108.018 32 108.278 31.7733 108.325 31.4667L109.379 24.7733C109.425 24.4667 109.692 24.24 109.998 24.24H113.872C118.398 24.24 122.245 20.9333 122.945 16.46C123.652 11.9467 120.125 8.00667 115.125 8H107.072ZM111.212 13.0867H114.312C116.865 13.0867 117.699 14.5933 117.432 16.26C117.172 17.9267 115.878 19.16 113.405 19.16H110.245L111.205 13.0867H111.212ZM131.618 14.64C130.545 14.64 129.305 14.8667 127.912 15.4467C124.725 16.7733 123.192 19.5267 122.538 21.5267C122.538 21.5267 120.472 27.64 125.145 30.9933C125.145 30.9933 129.485 34.2267 134.365 30.7933L134.278 31.3267C134.265 31.4067 134.272 31.4933 134.292 31.5733C134.312 31.6533 134.352 31.7267 134.412 31.7933C134.465 31.86 134.532 31.9067 134.612 31.9467C134.685 31.98 134.772 32 134.859 32H138.905C139.218 32 139.479 31.7733 139.525 31.4667L141.985 15.86C141.998 15.78 141.992 15.6933 141.972 15.6133C141.952 15.5333 141.912 15.46 141.852 15.3933C141.798 15.3267 141.732 15.28 141.652 15.24C141.578 15.2067 141.492 15.1867 141.405 15.1867H137.359C137.045 15.1867 136.785 15.4133 136.738 15.72L136.605 16.56C136.605 16.56 134.838 14.6267 131.605 14.64H131.618ZM131.745 19.5667C132.212 19.5667 132.632 19.6333 133.018 19.7533C134.765 20.3133 135.752 21.9933 135.472 23.8067C135.118 26.0467 133.285 27.6933 130.925 27.6933C130.458 27.6933 130.038 27.6267 129.652 27.5067C127.905 26.9467 126.912 25.2667 127.198 23.4533C127.552 21.2133 129.392 19.5667 131.752 19.5667H131.745Z" fill="black"/>
<path d="M85.6308 15.18C85.3108 15.18 85.0841 15.4933 85.1774 15.8L89.6174 29.5667L85.6041 36.0533C85.4108 36.3667 85.6374 36.7733 86.0041 36.7733H90.7441C90.8774 36.7733 91.0108 36.74 91.1308 36.6733C91.2508 36.6067 91.3508 36.5133 91.4174 36.3933L103.811 15.9C104.004 15.5867 103.771 15.18 103.404 15.18H98.6641C98.5241 15.18 98.3908 15.2133 98.2708 15.2867C98.1508 15.3533 98.0508 15.4533 97.9841 15.5733L93.1041 23.8067L90.6308 15.6333C90.5508 15.3667 90.3041 15.1867 90.0241 15.1867H85.6241L85.6308 15.18Z" fill="black"/>
<path d="M146.591 8C146.285 8 146.018 8.22667 145.971 8.53333L142.378 31.3267C142.365 31.4067 142.371 31.4933 142.391 31.5733C142.411 31.6533 142.458 31.7267 142.511 31.7933C142.565 31.86 142.631 31.9067 142.711 31.9467C142.791 31.98 142.871 32 142.958 32H147.218C147.531 32 147.791 31.7733 147.838 31.4667L151.431 8.67333C151.445 8.59333 151.438 8.50667 151.418 8.42667C151.398 8.34667 151.358 8.27333 151.298 8.20667C151.245 8.14 151.178 8.09333 151.098 8.05333C151.025 8.02 150.938 8 150.851 8H146.585H146.591Z" fill="black"/>
<path d="M28.1859 9.16666C28.1793 9.58666 28.1393 9.99999 28.0793 10.4133C27.2126 15.9267 22.4793 20 16.8993 20H11.3526C10.7859 20 10.2993 20.4133 10.2126 20.9733L8.47259 32L7.38592 38.92C7.36592 39.0533 7.37259 39.1933 7.41259 39.32C7.45259 39.4533 7.51259 39.5733 7.59925 39.6733C7.68592 39.7733 7.79925 39.86 7.91925 39.9133C8.03925 39.9667 8.17925 40 8.31259 40H14.3326C14.6059 40 14.8726 39.9 15.0793 39.72C15.2859 39.54 15.4259 39.2933 15.4659 39.0267L17.0526 28.9733C17.0926 28.7 17.2326 28.4533 17.4459 28.2733C17.6526 28.0933 17.9193 28 18.1926 28H21.7393C27.3193 28 32.0593 23.9267 32.9193 18.4133C33.5326 14.5 31.5593 10.9333 28.1926 9.16666H28.1859Z" fill="black"/>
<path d="M6.40622 0C5.83955 0 5.35288 0.413333 5.26622 0.973333L0.546216 30.92C0.459549 31.4867 0.892883 32 1.47288 32H8.47955L10.2195 20.9733L12.1129 8.97333C12.1529 8.7 12.2929 8.45333 12.4995 8.28C12.7062 8.10667 12.9729 8.00667 13.2462 8H23.2795C25.1062 8 26.7729 8.42667 28.1862 9.16667C28.2862 4.14667 24.1395 0 18.4395 0L6.40622 0Z" fill="black"/>
</g>
<defs>
<clipPath id="clip0_110_89">
<rect width="150.907" height="40" fill="white" transform="translate(0.53125)"/>
</clipPath>
</defs>
</svg>
