<svg width="215" height="34" viewBox="0 0 215 34" fill="none" xmlns="http://www.w3.org/2000/svg">
<g clip-path="url(#clip0_110_36)">
<path d="M9.69391 18.755C9.26391 17.775 8.32391 16.875 7.19391 16.875C6.06391 16.875 4.92391 17.735 4.92391 18.905C4.92391 20.585 7.03391 21.205 9.18391 22.105C11.3339 23.005 13.4439 24.295 13.4439 27.375C13.4439 30.855 10.6339 33.355 7.23391 33.355C4.14391 33.355 1.72391 31.595 0.753906 28.705L3.52391 27.535C4.30391 29.255 5.20391 30.465 7.27391 30.465C8.95391 30.465 10.2439 29.335 10.2439 27.655C10.2439 23.555 1.96391 24.965 1.96391 19.175C1.96391 16.085 4.46391 13.985 7.43391 13.985C9.54391 13.985 11.4939 15.465 12.3139 17.385L9.69391 18.755Z" fill="#010101"/>
<path d="M19.4244 24.345C19.4644 27.745 21.8844 30.475 25.4444 30.475C28.1044 30.475 29.8144 28.875 31.0344 26.685L33.6944 28.205C31.9344 31.485 28.9644 33.365 25.2144 33.365C19.7444 33.365 16.2344 29.185 16.2344 23.915C16.2344 18.645 19.3944 13.995 25.1444 13.995C30.8944 13.995 34.1644 18.875 33.8544 24.345H19.4444H19.4244ZM30.5544 21.685C30.1244 19.025 27.8944 16.885 25.1644 16.885C22.4344 16.885 19.9744 19.035 19.5744 21.685H30.5544Z" fill="#010101"/>
<path d="M42.503 7.58501C42.503 8.83501 41.483 9.81501 40.273 9.81501C39.063 9.81501 38.043 8.83501 38.043 7.58501C38.043 6.33501 39.063 5.35501 40.273 5.35501C41.483 5.35501 42.503 6.37501 42.503 7.58501ZM41.843 32.855H38.723V14.505H41.843V32.865V32.855Z" fill="#010101"/>
<path d="M61.993 30.325H61.913C60.393 32.315 58.083 33.375 55.583 33.375C50.193 33.375 46.793 28.805 46.793 23.725C46.793 18.645 50.113 13.995 55.623 13.995C58.083 13.995 60.423 15.165 61.913 17.115H61.993V0.63501H65.113V32.855H61.993V30.315V30.325ZM50.003 23.485C50.003 27.075 52.113 30.475 56.023 30.475C59.933 30.475 62.153 27.235 62.153 23.525C62.153 19.815 59.853 16.885 55.983 16.885C52.353 16.885 50.003 20.045 50.003 23.485Z" fill="#010101"/>
<path d="M72.4634 24.345C72.5034 27.745 74.9234 30.475 78.4834 30.475C81.1434 30.475 82.8534 28.875 84.0734 26.685L86.7334 28.205C84.9734 31.485 82.0034 33.365 78.2534 33.365C72.7834 33.365 69.2734 29.185 69.2734 23.915C69.2734 18.645 72.4334 13.995 78.1834 13.995C83.9334 13.995 87.2034 18.875 86.8934 24.345H72.4834H72.4634ZM83.5934 21.685C83.1634 19.025 80.9334 16.885 78.2034 16.885C75.4734 16.885 73.0134 19.035 72.6134 21.685H83.5934Z" fill="#010101"/>
<path d="M94.2958 16.725H94.3758C95.6658 14.965 97.3458 13.995 99.6058 13.995C104.686 13.995 105.856 17.665 105.856 21.965V32.865H102.736V22.515C102.736 19.545 102.506 16.895 98.8658 16.895C94.5658 16.895 94.2958 20.875 94.2958 24.165V32.875H91.1758V14.505H94.2958V16.735V16.725Z" fill="#010101"/>
<path d="M119.213 18.755C118.783 17.775 117.843 16.875 116.713 16.875C115.583 16.875 114.443 17.735 114.443 18.905C114.443 20.585 116.553 21.205 118.703 22.105C120.853 23.005 122.963 24.295 122.963 27.375C122.963 30.855 120.153 33.355 116.753 33.355C113.663 33.355 111.243 31.595 110.273 28.705L113.043 27.535C113.823 29.255 114.723 30.465 116.793 30.465C118.473 30.465 119.763 29.335 119.763 27.655C119.763 23.555 111.483 24.965 111.483 19.175C111.483 16.085 113.983 13.985 116.953 13.985C119.063 13.985 121.013 15.465 121.833 17.385L119.213 18.755Z" fill="#010101"/>
<path d="M130.655 32.855H127.535V17.385H125.625V14.495H127.535V7.89502H130.655V14.495H133.935V17.385H130.655V32.855Z" fill="#010101"/>
<path d="M141.124 7.58501C141.124 8.83501 140.104 9.81501 138.894 9.81501C137.684 9.81501 136.664 8.83501 136.664 7.58501C136.664 6.33501 137.684 5.35501 138.894 5.35501C140.104 5.35501 141.124 6.37501 141.124 7.58501ZM140.464 32.855H137.344V14.505H140.464V32.865V32.855Z" fill="#010101"/>
<path d="M160.614 19.965H160.534C159.084 18.125 157.294 16.875 154.834 16.875C151.044 16.875 148.354 19.995 148.354 23.675C148.354 27.355 150.854 30.475 154.684 30.475C157.304 30.475 159.134 29.305 160.664 27.315H160.744V31.495C158.944 32.705 157.114 33.375 154.924 33.375C149.374 33.375 145.164 29.235 145.164 23.685C145.164 18.135 149.574 13.995 154.964 13.995C156.954 13.995 158.984 14.655 160.624 15.835V19.975L160.614 19.965Z" fill="#010101"/>
<path d="M168.544 21.295L175.224 14.495H179.404L171.554 22.305L180.894 32.855H176.754L169.374 24.495L168.554 25.315V32.855H165.434V0.63501H168.554V21.295H168.544Z" fill="#010101"/>
<path d="M185.493 24.345C185.533 27.745 187.953 30.475 191.503 30.475C194.163 30.475 195.873 28.875 197.093 26.685L199.753 28.205C197.993 31.485 195.023 33.365 191.273 33.365C185.803 33.365 182.293 29.185 182.293 23.915C182.293 18.645 185.453 13.995 191.203 13.995C196.953 13.995 200.223 18.875 199.913 24.345H185.503H185.493ZM196.623 21.685C196.193 19.025 193.963 16.885 191.233 16.885C188.503 16.885 186.033 19.035 185.643 21.685H196.623Z" fill="#010101"/>
<path d="M207.165 16.495H207.245C208.335 15.045 209.275 13.995 211.305 13.995C212.355 13.995 213.215 14.345 214.115 14.855L212.635 17.705C212.015 17.275 211.585 16.885 210.765 16.885C207.325 16.885 207.175 21.295 207.175 23.685V32.865H204.055V14.505H207.175V16.495H207.165Z" fill="#010101"/>
</g>
<defs>
<clipPath id="clip0_110_36">
<rect width="213.37" height="32.73" fill="white" transform="translate(0.753906 0.63501)"/>
</clipPath>
</defs>
</svg>
